<svg width="130" height="46" xmlns="http://www.w3.org/2000/svg" xmlns:xlink="http://www.w3.org/1999/xlink"><defs><path id="a" d="M0 0v15.191h26.154z"/></defs><g fill="none" fill-rule="evenodd"><g fill-rule="nonzero"><g fill="#F3903B"><path d="M10.928 3.207H3.195v9.41h7.733a4.7 4.7 0 0 0 4.695-4.705 4.7 4.7 0 0 0-4.695-4.705zm0 7.586H5.012V5.03h5.916a2.914 2.914 0 0 1 2.87 2.88 2.88 2.88 0 0 1-2.87 2.882zM12.722 13.995H3.16v9.408h9.562a4.699 4.699 0 0 0 4.694-4.704 4.699 4.699 0 0 0-4.694-4.704zm0 7.584H4.976v-5.76h7.746a2.877 2.877 0 0 1 2.874 2.88c0 1.59-1.287 2.88-2.874 2.88z"/><path d="m17.59 12.477-.128-.102.088-.139a8.054 8.054 0 0 0 1.26-4.326c-.002-4.363-3.529-7.9-7.882-7.908H0v26.606h12.724a7.9 7.9 0 0 0 7.446-5.333 7.925 7.925 0 0 0-2.578-8.799l-.002.001zm-4.866 12.307H1.818V1.824h9.11a6.093 6.093 0 0 1 5.335 3.202 6.118 6.118 0 0 1-.247 6.226l-.972 1.532 1.421 1.125a6.097 6.097 0 0 1 1.985 6.77 6.077 6.077 0 0 1-5.727 4.103v.002z"/></g><g fill="#F3903B"><path d="M40.945 9.71c0-3.588-2.898-6.497-6.478-6.503H27.99V16.21h6.477c3.578-.007 6.476-2.915 6.478-6.5zM29.807 5.03h4.66a4.674 4.674 0 0 1 4.669 4.68 4.674 4.674 0 0 1-4.67 4.678h-4.659V5.03z"/><path d="M39.009 26.608h5.98l-5.58-8.538.16-.1a9.73 9.73 0 0 0 4.2-10.908A9.703 9.703 0 0 0 34.47 0h-9.671v26.605h5.011v-7.191h4.51l4.69 7.194zM27.996 17.59v7.193H26.62V1.826h7.844a7.88 7.88 0 0 1 7.556 5.74 7.901 7.901 0 0 1-3.426 8.86l-1.721 1.088 4.746 7.271h-1.63l-4.693-7.193h-7.31.01z"/></g><path d="M48.745.002v26.606h5.01V.002h-5.01zm3.193 24.782h-1.374V1.824h1.374v22.96zM71.267 26.608a13.1 13.1 0 0 0 10.567-5.274v-8.745h-11.28v5.028h6.27v1.813l-.06.055a8.35 8.35 0 0 1-5.497 2.096 8.262 8.262 0 0 1-8.129-6.74 8.278 8.278 0 0 1 5.118-9.245 8.249 8.249 0 0 1 10.01 3.342l3.97-3.08A13.243 13.243 0 0 0 66.132 1.07c-5.82 2.449-9.11 8.672-7.863 14.874 1.247 6.201 6.684 10.662 12.998 10.661v.003zm0-24.782a11.43 11.43 0 0 1 8.276 3.565l.137.143-1.09.847-.115-.115A10.051 10.051 0 0 0 66.31 4.539a10.096 10.096 0 0 0-4.772 11.345 10.07 10.07 0 0 0 9.729 7.519 10.146 10.146 0 0 0 6.691-2.547l.683-.599v-4.465h-6.27v-1.38h7.646V20.7l-.04.052a11.43 11.43 0 0 1-13.894 2.76 11.478 11.478 0 0 1-5.932-12.89 11.451 11.451 0 0 1 11.116-8.798v.002zM105.587 26.608V.002h-5.01v13.486h-9.803V.002h-5.015v26.606h5.015v-8.092h9.803v8.092h5.01zm-16.63-9.915v8.092h-1.379V1.824h1.378V15.31h13.438V1.824h1.374v22.96h-1.374v-8.09H88.956zM129.82.002h-19.826v5.029h7.405v21.577h5.01V5.03h7.407V.002h.003zm-1.818 3.205h-7.41v21.577h-1.374V3.207h-7.407V1.824h16.195v1.383h-.004z" fill="#F3903B"/><g fill="#3E3C3A"><path d="M50.39 32.12h-1.21v9.666l-9.689-9.27V45h1.21v-9.663l9.688 9.286zM62.566 33.334V32.12h-8.959V45h8.96v-1.213h-7.75V38.87h4.063v-1.216h-4.063v-4.32zM74.42 32.12h-9.145v1.214h3.969V45h1.207V33.334h3.969zM84.84 36.18l3.22 8.444 4.77-12.504h-1.292l-3.487 9.114-3.215-8.457-3.237 8.457-3.467-9.114h-1.288l4.77 12.504zM99.812 32.12a6.427 6.427 0 0 0-5.946 3.968 6.45 6.45 0 0 0 1.385 7.022 6.417 6.417 0 0 0 7.006 1.403 6.44 6.44 0 0 0 3.97-5.951c-.001-3.552-2.87-6.433-6.415-6.442zm0 11.667a5.216 5.216 0 0 1-4.828-3.217 5.235 5.235 0 0 1 1.123-5.7 5.208 5.208 0 0 1 5.686-1.139 5.227 5.227 0 0 1 3.222 4.83 5.224 5.224 0 0 1-5.203 5.226zM116.039 45h1.452l-2.723-4.156.375-.18a4.503 4.503 0 0 0-1.954-8.544h-4.48v12.881h1.212v-3.886h3.579L116.039 45zm-6.12-5.103v-6.562h3.27a3.277 3.277 0 0 1 3.274 3.281 3.277 3.277 0 0 1-3.274 3.281h-3.27zM128.571 45H130l-4.97-7.978 4.473-4.902h-1.652l-6.274 6.874V32.12h-1.212V45h1.212v-4.233l2.588-2.829z"/></g></g><g transform="translate(0 30.809)"><mask id="b" fill="#fff"><use xlink:href="#a"/></mask><g fill-rule="nonzero" mask="url(#b)"><path fill="#E30303" d="M-13.517 23.567 19.552-33.71l3.587 2.07-33.07 57.278z"/><path fill="#FEED01" d="m-4.549 28.745 33.07-57.277 3.586 2.07L-.962 30.817z"/><path fill="#004DFF" d="m4.419 33.922 33.069-57.277 3.587 2.071-33.07 57.277z"/><path fill="#FF8B00" d="M-9.93 25.638 23.139-31.64l5.38 3.106L-4.55 28.744z"/><path fill="#008127" d="m-.962 30.816 33.07-57.277 5.38 3.106-33.07 57.277z"/><path fill="#750688" d="m8.007 35.994 33.069-57.277 5.38 3.106L13.387 39.1z"/><g><path fill="#E30303" d="m-15.122 28.13 33.899-58.713 3.795 2.191-33.898 58.714z"/><path fill="#FEED01" d="M-7.53 32.514 26.37-26.2l3.796 2.192-33.899 58.714z"/><path fill="#004DFF" d="M.061 36.897 33.96-21.817l3.795 2.191L3.857 39.088z"/><path fill="#FF8B00" d="m-11.326 30.322 33.898-58.714 3.796 2.192L-7.53 32.514z"/><path fill="#008127" d="m-3.735 34.705 33.899-58.714 3.796 2.192L.06 36.897z"/><path fill="#750688" d="m3.858 39.089 33.898-58.714 3.796 2.191L7.654 41.28z"/></g></g></g></g></svg>